<svg t="1765773187154" class="icon" viewBox="0 0 1024 1024" version="1.1"
  xmlns="http://www.w3.org/2000/svg" p-id="4685" width="200" height="200">
  <path
    d="M554.688 469.312H85.312A42.688 42.688 0 0 0 42.688 512v384c0 23.552 19.072 42.688 42.624 42.688h469.376A42.688 42.688 0 0 0 597.312 896V512a42.688 42.688 0 0 0-42.624-42.688z m-237.248 384l82.368-82.304a12.8 12.8 0 0 1 21.312 0l81.92 82.304h-185.6zM512 741.568l-30.72-30.336a102.848 102.848 0 0 0-142.08 0l-142.528 142.08H128V554.688h384v186.88zM85.312 175.36a42.688 42.688 0 0 0 36.736-20.928 44.8 44.8 0 0 0-5.12-57.408 42.688 42.688 0 0 0-31.616-11.712A42.688 42.688 0 0 0 42.688 128v4.288a42.688 42.688 0 0 0 42.624 43.072z m337.536-4.672h8.064a42.688 42.688 0 0 0 0-85.376h-8.064a42.688 42.688 0 0 0 0 85.376zM85.312 374.592A42.688 42.688 0 0 0 128 331.968V322.56a42.688 42.688 0 1 0-85.312 0v9.408c0 23.552 19.072 42.624 42.624 42.624z m515.84-289.28h-8.064a42.688 42.688 0 0 0 0 85.376h8.064a42.688 42.688 0 0 0 0-85.376zM252.16 170.688h8.128a42.688 42.688 0 1 0 0-85.376H252.16a42.688 42.688 0 1 0 0 85.376z m686.528 102.4a42.688 42.688 0 0 0-42.688 42.624v8.96a42.688 42.688 0 0 0 85.312 0v-8.96a42.688 42.688 0 0 0-42.624-42.624z m-208.256 580.224h-10.24a42.688 42.688 0 0 0 0 85.376h10.24a42.688 42.688 0 0 0 0-85.376z m203.968-768A42.688 42.688 0 0 0 896 128a42.688 42.688 0 0 0 4.288 17.92 42.688 42.688 0 0 0 81.024-13.248V128a46.528 46.528 0 0 0-46.912-42.688z m4.288 379.776a42.688 42.688 0 0 0-42.688 42.624v9.408a42.688 42.688 0 0 0 85.312 0v-9.408a42.688 42.688 0 0 0-42.624-42.624zM771.84 85.312h-8.128a42.688 42.688 0 0 0 0 85.376h8.128a42.688 42.688 0 0 0 0-85.376z m166.848 768a39.68 39.68 0 0 0-18.816 4.736A42.688 42.688 0 0 0 896 896c0 23.552 19.072 42.688 42.688 42.688a46.528 46.528 0 0 0 42.624-46.976 42.688 42.688 0 0 0-42.624-38.4z m0-194.56a42.688 42.688 0 0 0-42.688 42.688v9.408a42.688 42.688 0 1 0 85.312 0v-11.136a42.688 42.688 0 0 0-42.624-42.624v1.664z"
    p-id="4686"></path>
</svg>