<svg t="1764946106067" class="icon" viewBox="0 0 1024 1024" version="1.1"
  xmlns="http://www.w3.org/2000/svg" p-id="31004" width="200" height="200">
  <path
    d="M810.642286 682.422857c12.434286 0 24.283429 5.412571 32.402285 14.848l128 149.357714a42.642286 42.642286 0 1 1-64.804571 55.515429l-95.597714-108.251429-95.597715 108.251429a42.642286 42.642286 0 0 1-64.804571-55.588571l128-149.211429a42.642286 42.642286 0 0 1 32.402286-14.994286zM85.357714 170.642286a42.642286 42.642286 0 0 0 0 85.357714h384a42.642286 42.642286 0 0 0 0-85.357714h-384zM85.357714 469.357714a42.642286 42.642286 0 1 0 0 85.284572h384a42.642286 42.642286 0 1 0 0-85.284572h-384zM42.642286 810.642286c0-23.552 19.090286-42.642286 42.715428-42.642286h384a42.642286 42.642286 0 1 1 0 85.357714h-384a42.642286 42.642286 0 0 1-42.715428-42.715428z"
    p-id="31005"></path>
  <path
    d="M810.642286 682.422857c12.434286 0 24.283429 5.412571 32.402285 14.848l128 149.357714a42.642286 42.642286 0 1 1-64.804571 55.515429l-95.597714-108.251429-95.597715 108.251429a42.642286 42.642286 0 0 1-64.804571-55.588571l128-149.211429a42.642286 42.642286 0 0 1 32.402286-14.994286zM810.715429 341.357714a42.715429 42.715429 0 0 1-32.402286-14.921143L650.24 177.078857a42.642286 42.642286 0 0 1 64.804571-55.515428l95.597715 108.251428 95.597714-108.251428a42.642286 42.642286 0 0 1 64.804571 55.588571l-128 149.284571a42.642286 42.642286 0 0 1-32.402285 14.921143z"
    p-id="31006"></path>
</svg>